<mxfile host="65bd71144e">
    <diagram id="d2ZziJYLRuLL4TYNv0xV" name="Page-1">
        <mxGraphModel dx="1327" dy="476" grid="1" gridSize="10" guides="1" tooltips="1" connect="1" arrows="1" fold="1" page="1" pageScale="1" pageWidth="850" pageHeight="1100" math="0" shadow="0">
            <root>
                <mxCell id="0"/>
                <mxCell id="1" parent="0"/>
                <mxCell id="2" value="Метасущность опис. темы&lt;br&gt;&lt;br&gt;&amp;nbsp;- описание&amp;nbsp;&lt;br&gt;&amp;nbsp;- таблица ссылок&lt;br&gt;&amp;nbsp;- таблица файлов&lt;br&gt;&amp;nbsp;- табличные данные (дин. таблицы, google sheets)" style="rounded=0;whiteSpace=wrap;html=1;align=left;verticalAlign=top;" vertex="1" parent="1">
                    <mxGeometry x="40" y="80" width="190" height="120" as="geometry"/>
                </mxCell>
                <mxCell id="4" value="Сущность заметки&lt;br&gt;&lt;br&gt;&amp;nbsp;- текст&lt;br&gt;&amp;nbsp;- тэги" style="rounded=0;whiteSpace=wrap;html=1;align=left;verticalAlign=top;" vertex="1" parent="1">
                    <mxGeometry x="40" y="240" width="190" height="80" as="geometry"/>
                </mxCell>
                <mxCell id="5" value="&lt;h1&gt;Добавление статьи&lt;/h1&gt;&lt;p&gt;-&amp;nbsp;&lt;/p&gt;" style="text;html=1;strokeColor=none;fillColor=none;spacing=5;spacingTop=-20;whiteSpace=wrap;overflow=hidden;rounded=0;" vertex="1" parent="1">
                    <mxGeometry x="270" y="40" width="300" height="180" as="geometry"/>
                </mxCell>
                <mxCell id="6" value="Алгоритмы добавления в базу" style="text;html=1;strokeColor=none;fillColor=none;align=center;verticalAlign=middle;whiteSpace=wrap;rounded=0;fontSize=19;" vertex="1" parent="1">
                    <mxGeometry x="-40" y="350" width="310" height="30" as="geometry"/>
                </mxCell>
            </root>
        </mxGraphModel>
    </diagram>
</mxfile>